<?xml version="1.0" encoding="utf-8"?>
<!-- Generator: Adobe Illustrator 15.0.2, SVG Export Plug-In . SVG Version: 6.00 Build 0)  -->
<!DOCTYPE svg PUBLIC "-//W3C//DTD SVG 1.1//EN" "http://www.w3.org/Graphics/SVG/1.1/DTD/svg11.dtd">
<svg version="1.1" id="Layer_1" xmlns="http://www.w3.org/2000/svg" xmlns:xlink="http://www.w3.org/1999/xlink" x="0px" y="0px"
	 width="16px" height="16px" viewBox="0 0 16 16" enable-background="new 0 0 16 16" xml:space="preserve">
<path d="M12.99,13.705c-0.219,0-0.438-0.084-0.605-0.251c-0.334-0.335-0.334-0.878,0-1.213c2.339-2.339,2.339-6.145,0-8.483
	c-0.334-0.335-0.334-0.878,0-1.212c0.335-0.335,0.878-0.335,1.212,0c1.458,1.457,2.259,3.393,2.259,5.454
	c0,2.06-0.801,3.997-2.259,5.453c-0.167,0.167-0.386,0.252-0.604,0.252L12.99,13.705z M9.946,12.088
	c-0.22,0-0.439-0.083-0.607-0.252c-0.335-0.335-0.335-0.877,0-1.212c1.448-1.447,1.448-3.803,0-5.25
	c-0.335-0.335-0.335-0.878,0-1.212c0.335-0.335,0.88-0.335,1.214,0c2.116,2.116,2.116,5.56,0,7.675
	C10.386,12.004,10.167,12.088,9.946,12.088L9.946,12.088z M7.31,0.263C7.768-0.195,8.142-0.04,8.142,0.609v14.783
	c0,0.647-0.375,0.803-0.833,0.346L3,11.428H0.144V4.572H3L7.31,0.263z"/>
</svg>
