<?xml version="1.0" encoding="utf-8"?>
<!-- Generator: Adobe Illustrator 15.0.2, SVG Export Plug-In . SVG Version: 6.00 Build 0)  -->
<!DOCTYPE svg PUBLIC "-//W3C//DTD SVG 1.1//EN" "http://www.w3.org/Graphics/SVG/1.1/DTD/svg11.dtd">
<svg version="1.1" id="Layer_1" xmlns="http://www.w3.org/2000/svg" xmlns:xlink="http://www.w3.org/1999/xlink" x="0px" y="0px"
	 width="16px" height="16px" viewBox="0 0 16 16" enable-background="new 0 0 16 16" xml:space="preserve">
<path d="M15.337,6.336l-1.674-1.674C13.299,4.298,12.578,4,12.062,4H6.438C5.922,4,5.5,4.422,5.5,4.937v10.125
	C5.5,15.578,5.922,16,6.438,16h8.625C15.578,16,16,15.578,16,15.062V7.937C16,7.421,15.701,6.701,15.337,6.336z M13,5.084
	c0.052,0.036,0.096,0.072,0.133,0.109l1.674,1.674C14.844,6.904,14.88,6.949,14.916,7H13V5.084z M15.25,15.062
	c0,0.102-0.085,0.188-0.188,0.188H6.438c-0.101,0-0.188-0.086-0.188-0.188V4.937c0-0.101,0.087-0.188,0.188-0.188h5.625
	c0.057,0,0.12,0.007,0.188,0.02v2.98h2.979c0.013,0.067,0.021,0.13,0.021,0.188V15.062z"/>
<path d="M7.75,10h6v0.75h-6V10z"/>
<path d="M7.75,13h6v0.75h-6V13z"/>
<path d="M7.75,11.5h6v0.75h-6V11.5z"/>
<g>
	<rect x="2.25" y="8" width="3.25" height="0.75"/>
	<rect x="2.25" y="11" width="3.25" height="0.75"/>
	<rect x="2.25" y="9.5" width="3.25" height="0.75"/>
	<path d="M0.938,13.25c-0.101,0-0.188-0.086-0.188-0.188V2.937c0-0.101,0.087-0.188,0.188-0.188h5.625
		c0.057,0,0.12,0.007,0.188,0.02V4H7.5V3.084C7.552,3.12,7.596,3.156,7.633,3.193L8.439,4H9.5L8.163,2.663
		C7.799,2.298,7.078,2,6.562,2H3.5V0.938c0-0.101,0.087-0.188,0.188-0.188h5.625c0.057,0,0.12,0.007,0.188,0.02v2.98h2.979
		C12.492,3.817,12.5,3.88,12.5,3.938v0.121c0.256,0.062,0.519,0.171,0.75,0.305V3.938c0-0.516-0.299-1.236-0.663-1.601l-1.674-1.674
		C10.549,0.298,9.828,0,9.312,0H3.688C3.172,0,2.75,0.422,2.75,0.938V2H0.938C0.422,2,0,2.422,0,2.937v10.125
		C0,13.578,0.422,14,0.938,14H5.5v-0.75H0.938z M10.25,1.084c0.052,0.036,0.096,0.072,0.133,0.109l1.674,1.674
		C12.094,2.904,12.13,2.949,12.166,3H10.25V1.084z"/>
</g>
</svg>
