<?xml version="1.0" encoding="utf-8"?>
<!-- Generator: Adobe Illustrator 15.0.2, SVG Export Plug-In . SVG Version: 6.00 Build 0)  -->
<!DOCTYPE svg PUBLIC "-//W3C//DTD SVG 1.1//EN" "http://www.w3.org/Graphics/SVG/1.1/DTD/svg11.dtd">
<svg version="1.1" id="Layer_1" xmlns="http://www.w3.org/2000/svg" xmlns:xlink="http://www.w3.org/1999/xlink" x="0px" y="0px"
	 width="16px" height="16px" viewBox="0 0 16 16" enable-background="new 0 0 16 16" xml:space="preserve">
<path d="M15.932,0.454c0.129,0.311,0.075,0.575-0.159,0.795l-5.594,5.594v8.419c0,0.318-0.147,0.541-0.442,0.67
	c-0.098,0.038-0.193,0.057-0.284,0.057c-0.204,0-0.374-0.072-0.511-0.216l-2.904-2.904c-0.144-0.145-0.216-0.313-0.216-0.511V6.843
	L0.227,1.249c-0.234-0.22-0.288-0.484-0.159-0.795C0.197,0.159,0.42,0.012,0.738,0.012h14.524
	C15.58,0.012,15.803,0.159,15.932,0.454z"/>
</svg>
